#!OML:ASF F:\VICON\USERDATA\INSTALL\rory3\rory3.ASF
:FULLY-SPECIFIED
:DEGREES
586
root 18.7833 17.4901 11.2458 -2.90954 0.143822 5.4797
lowerback 12.3827 3.50461 1.34757
upperback 1.50776 4.88381 0.96861
thorax -5.31429 2.38268 -0.556791
lowerneck -19.2391 5.00419 -7.3843
upperneck 39.2789 9.89905 2.63746
head 17.0355 3.39537 4.42284
rclavicle 1.63003e-014 -6.36111e-015
rhumerus -36.4092 -20.3099 -64.8081
rradius 33.2723
rwrist 4.88568
rhand -17.4888 9.65415
rfingers 7.12502
rthumb 8.76362 -20.1439
lclavicle 1.63003e-014 -6.36111e-015
lhumerus -37.4762 20.7789 75.0688
lradius 26.4091
lwrist -11.0122
lhand -19.7095 26.4888
lfingers 7.12502
lthumb 6.6203 56.3653
rfemur -2.97538 8.12072 -3.78364
rtibia 29.3128
rfoot -6.01807 -14.8473
rtoes 15.0735
lfemur -1.70667 -8.93745 -16.3696
ltibia 21.0345
lfoot -14.3197 -5.9359
ltoes -27.2271
587
root 18.8933 17.5104 11.236 -2.83726 0.339846 5.44459
lowerback 12.2649 3.47124 1.2028
upperback 1.56657 4.81961 1.01403
thorax -5.20397 2.35644 -0.408424
lowerneck -18.8988 5.01622 -7.02053
upperneck 38.935 9.88951 2.19166
head 16.8326 3.40627 4.12435
rclavicle 5.78463e-014 -1.59028e-014
rhumerus -36.3854 -20.4879 -64.8345
rradius 33.2563
rwrist 5.0069
rhand -17.5248 9.52259
rfingers 7.12502
rthumb 8.72891 -20.2769
lclavicle 5.78463e-014 -1.59028e-014
lhumerus -36.9405 20.2567 75.3621
lradius 26.641
lwrist -10.7781
lhand -19.163 25.9916
lfingers 7.12502
lthumb 7.14784 55.8509
rfemur -3.47557 8.03279 -3.48158
rtibia 30.2232
rfoot -7.52881 -18.0809
rtoes 4.64462
lfemur -1.76378 -9.0306 -16.6951
ltibia 20.8692
lfoot -14.2552 -6.21499
ltoes -26.3002
588
root 18.9993 17.5259 11.2266 -2.79592 0.47833 5.49881
lowerback 12.2996 3.46931 0.958059
upperback 1.53745 4.78709 1.03645
thorax -5.27623 2.34463 -0.247358
lowerneck -19.6278 5.03947 -7.56768
upperneck 39.5475 10.0441 2.77293
head 17.2446 3.42084 4.58033
rclavicle -4.70126e-014 4.77083e-015
rhumerus -36.4784 -20.5985 -64.8307
rradius 33.22
rwrist 5.09383
rhand -17.4174 9.22785
rfingers 7.12502
rthumb 8.83258 -20.5673
lclavicle -4.70126e-014 4.77083e-015
lhumerus -36.6892 19.6271 75.6252
lradius 27.0792
lwrist -10.6338
lhand -18.9649 25.8771
lfingers 7.12502
lthumb 7.33904 55.7298
rfemur -3.76138 8.04892 -3.29154
rtibia 31.2416
rfoot -6.91652 -16.0772
rtoes 20.3424
lfemur -1.86619 -9.08461 -17.0924
ltibia 20.8371
lfoot -14.1392 -6.66586
ltoes -24.4337
589
root 19.0984 17.5408 11.2087 -2.72243 0.772599 5.70137
lowerback 12.4187 3.41258 0.593972
upperback 1.43037 4.66242 0.961934
thorax -5.47851 2.28788 -0.113801
lowerneck -19.4589 5.031 -7.45799
upperneck 39.5873 9.99328 2.72591
head 17.2396 3.41072 4.52568
rclavicle 3.62782e-014 -2.8625e-014
rhumerus -36.5896 -20.7661 -64.8931
rradius 33.0246
rwrist 5.13206
rhand -17.4639 9.38485
rfingers 7.12502
rthumb 8.7877 -20.4122
lclavicle 3.62782e-014 -2.8625e-014
lhumerus -36.537 18.9062 75.7437
lradius 27.5069
lwrist -10.2413
lhand -18.9299 25.8579
lfingers 7.12502
lthumb 7.37286 55.7095
rfemur -4.25786 7.87297 -3.19164
rtibia 32.3146
rfoot -7.9361 -15.6516
rtoes 21.4651
lfemur -2.1357 -9.05472 -17.6206
ltibia 20.9411
lfoot -14.0981 -7.21001
ltoes -23.9965
590
root 19.1894 17.552 11.1874 -2.67307 1.10873 5.95106
lowerback 12.4766 3.35184 0.169334
upperback 1.39443 4.52 0.869352
thorax -5.57382 2.22551 0.0450742
lowerneck -18.6237 4.95878 -6.87736
upperneck 38.9506 9.75733 2.10384
head 16.7992 3.36486 4.02544
rclavicle -2.127e-014 -1.11319e-014
rhumerus -36.6111 -20.9745 -65.0447
rradius 32.8873
rwrist 5.18239
rhand -17.5277 9.34871
rfingers 7.12502
rthumb 8.72617 -20.4509
lclavicle -2.127e-014 -1.11319e-014
lhumerus -36.0657 18.0521 75.9783
lradius 27.7275
lwrist -9.56479
lhand -19.2078 25.9009
lfingers 7.12502
lthumb 7.10458 55.7617
rfemur -4.80807 7.66193 -3.05506
rtibia 33.4734
rfoot -8.76717 -15.1936
rtoes 20.8101
lfemur -2.44674 -8.95343 -18.1693
ltibia 21.1346
lfoot -14.0078 -7.70915
ltoes -23.4926
591
root 19.2778 17.568 11.1722 -2.73825 1.23904 5.87172
lowerback 12.5624 3.30556 0.0747429
upperback 1.46753 4.44577 0.881652
thorax -5.55206 2.19126 0.120783
lowerneck -18.9547 4.90965 -7.05892
upperneck 39.1556 9.6911 2.37704
head 16.959 3.33052 4.19446
rclavicle 7.63333e-014 -3.18055e-015
rhumerus -36.4921 -21.1388 -65.3035
rradius 32.8188
rwrist 5.36982
rhand -17.6063 9.07732
rfingers 7.12502
rthumb 8.65032 -20.7255
lclavicle 7.63333e-014 -3.18055e-015
lhumerus -35.5459 17.5266 76.1428
lradius 28.0616
lwrist -9.24185
lhand -19.3999 26.2435
lfingers 7.12502
lthumb 6.91914 56.1104
rfemur -5.28929 7.74935 -2.45132
rtibia 34.6489
rfoot -9.85085 -14.571
rtoes 18.9638
lfemur -2.572 -8.81987 -18.3736
ltibia 21.3118
lfoot -13.933 -8.01624
ltoes -22.4329
592
root 19.3649 17.5851 11.1596 -2.77469 1.29961 5.60314
lowerback 12.565 3.30032 0.175037
upperback 1.54511 4.45526 0.946606
thorax -5.46939 2.19494 0.133763
lowerneck -18.8822 4.86085 -7.16774
upperneck 38.9339 9.61611 2.40227
head 16.8177 3.3031 4.1911
rclavicle 6.95746e-016 9.54166e-015
rhumerus -36.4696 -21.3862 -65.4813
rradius 32.6904
rwrist 5.63804
rhand -17.7037 9.25828
rfingers 7.12502
rthumb 8.55627 -20.5484
lclavicle 6.95746e-016 9.54166e-015
lhumerus -35.0802 16.8942 76.306
lradius 28.5343
lwrist -8.82201
lhand -19.3843 26.2664
lfingers 7.12502
lthumb 6.93422 56.1329
rfemur -5.81411 7.81656 -1.60132
rtibia 35.8334
rfoot -10.8109 -13.5314
rtoes 16.8349
lfemur -2.69356 -8.65419 -18.359
ltibia 21.4676
lfoot -13.9669 -8.19837
ltoes -22.4304
593
root 19.4495 17.5992 11.1448 -2.7995 1.49918 5.42475
lowerback 12.6185 3.27052 0.193202
upperback 1.56057 4.41989 0.972071
thorax -5.48319 2.17726 0.153611
lowerneck -18.7209 4.86578 -7.25
upperneck 38.7054 9.58297 2.47941
head 16.645 3.3082 4.20781
rclavicle 8.54774e-015 -2.54444e-014
rhumerus -36.6053 -21.4294 -65.7212
rradius 32.7254
rwrist 5.65042
rhand -17.7225 9.51541
rfingers 7.12502
rthumb 8.53813 -20.292
lclavicle 8.54774e-015 -2.54444e-014
lhumerus -34.6371 16.2266 76.4046
lradius 28.901
lwrist -8.3464
lhand -19.2564 26.2289
lfingers 7.12502
lthumb 7.05769 56.0912
rfemur -6.26947 7.69638 -0.832053
rtibia 36.9976
rfoot -11.7424 -11.9782
rtoes 14.6097
lfemur -2.82794 -8.48374 -18.4391
ltibia 21.6147
lfoot -14.0424 -8.54339
ltoes -22.5107
594
root 19.5304 17.6105 11.1285 -2.79003 1.69861 5.24387
lowerback 12.6602 3.22912 0.188801
upperback 1.57872 4.36668 1.00957
thorax -5.49012 2.15149 0.202523
lowerneck -18.7456 4.88985 -7.25473
upperneck 38.6019 9.62414 2.45652
head 16.595 3.3268 4.20012
rclavicle -3.01159e-014 -6.36111e-015
rhumerus -36.598 -21.4274 -66.0193
rradius 32.7284
rwrist 5.76702
rhand -17.6972 9.62887
rfingers 7.12502
rthumb 8.56259 -20.1775
lclavicle -3.01159e-014 -6.36111e-015
lhumerus -34.2234 15.8224 76.4207
lradius 29.3623
lwrist -7.81895
lhand -19.3312 26.09
lfingers 7.12502
lthumb 6.98546 55.9548
rfemur -6.78935 7.49021 -0.0278315
rtibia 38.1487
rfoot -12.6614 -10.1309
rtoes 13.3743
lfemur -3.02183 -8.47743 -18.5107
ltibia 21.7708
lfoot -13.9752 -8.83851
ltoes -21.9659
595
root 19.6105 17.6244 11.1156 -2.79931 1.81711 5.01354
lowerback 12.6673 3.17588 0.264615
upperback 1.62147 4.30918 1.06434
thorax -5.44723 2.12247 0.228424
lowerneck -18.8277 4.89693 -7.26253
upperneck 38.5233 9.69356 2.32547
head 16.5816 3.33632 4.15612
rclavicle 1.66979e-014 -2.06736e-014
rhumerus -36.512 -21.4089 -66.3428
rradius 32.6843
rwrist 6.05657
rhand -17.6522 9.50203
rfingers 7.12502
rthumb 8.60603 -20.3026
lclavicle 1.66979e-014 -2.06736e-014
lhumerus -33.8616 15.7056 76.3138
lradius 29.8906
lwrist -7.53407
lhand -19.2371 25.6287
lfingers 7.12502
lthumb 7.07632 55.4904
rfemur -7.34424 7.20819 0.878015
rtibia 39.2571
rfoot -13.5363 -8.21074
rtoes 12.0421
lfemur -3.14797 -8.63666 -18.5662
ltibia 21.9318
lfoot -13.9509 -8.81292
ltoes -21.4462
596
root 19.6905 17.6372 11.1023 -2.89223 1.96964 4.8228
lowerback 12.8483 3.12054 0.358649
upperback 1.62107 4.25147 1.08556
thorax -5.54225 2.09131 0.197693
lowerneck -18.9442 4.88844 -7.39908
upperneck 38.5941 9.67115 2.52209
head 16.6218 3.33008 4.27044
rclavicle 3.81667e-014 2.54444e-014
rhumerus -36.6198 -21.3311 -66.6389
rradius 32.7431
rwrist 6.22336
rhand -17.3652 9.36934
rfingers 7.12502
rthumb 8.88294 -20.4237
lclavicle 3.81667e-014 2.54444e-014
lhumerus -33.6807 15.2283 76.2939
lradius 30.5826
lwrist -7.25143
lhand -19.3479 25.4628
lfingers 7.12502
lthumb 6.96928 55.3281
rfemur -7.77577 6.84825 1.7788
rtibia 40.322
rfoot -14.5424 -6.18476
rtoes 10.2862
lfemur -3.20763 -8.8692 -18.683
ltibia 22.1374
lfoot -13.986 -8.7664
ltoes -20.7686
597
root 19.7672 17.6481 11.0903 -2.97501 2.16989 4.54054
lowerback 12.9919 3.04189 0.495812
upperback 1.60944 4.17107 1.13527
thorax -5.62755 2.04847 0.178702
lowerneck -19.0115 4.88752 -7.43844
upperneck 38.6527 9.6459 2.64736
head 16.6564 3.32752 4.33425
rclavicle -3.71727e-014 -1.11319e-014
rhumerus -36.7655 -21.23 -66.9396
rradius 32.819
rwrist 6.39374
rhand -16.9886 9.36152
rfingers 7.12502
rthumb 9.24637 -20.4157
lclavicle -3.71727e-014 -1.11319e-014
lhumerus -33.5724 14.5904 76.3017
lradius 31.419
lwrist -6.57722
lhand -19.5181 25.7781
lfingers 7.12502
lthumb 6.80503 55.6487
rfemur -8.14337 6.4411 2.83974
rtibia 41.3679
rfoot -15.5588 -4.17837
rtoes 9.85382
lfemur -3.30917 -9.00024 -18.6683
ltibia 22.3922
lfoot -14.2149 -8.71259
ltoes -21.3019
598
root 19.8417 17.659 11.0797 -2.94708 2.40125 4.2863
lowerback 12.9469 2.9936 0.571099
upperback 1.61233 4.1202 1.18254
thorax -5.59761 2.02274 0.197599
lowerneck -19.0569 4.78091 -7.48166
upperneck 38.5806 9.52561 2.58064
head 16.6435 3.26372 4.28974
rclavicle 4.84041e-014 0
rhumerus -36.8376 -21.1891 -67.2334
rradius 32.8701
rwrist 6.61577
rhand -16.7859 9.48829
rfingers 7.12502
rthumb 9.44191 -20.2802
lclavicle 4.84041e-014 0
lhumerus -33.3593 14.0837 76.271
lradius 32.1968
lwrist -5.88211
lhand -19.742 25.9926
lfingers 7.12502
lthumb 6.58892 55.8701
rfemur -8.60464 5.87554 3.89017
rtibia 42.4016
rfoot -16.5521 -2.16294
rtoes 10.1707
lfemur -3.55549 -9.29431 -18.6553
ltibia 22.6806
lfoot -14.2336 -8.76616
ltoes -20.3822
599
root 19.9115 17.6621 11.0657 -2.81184 2.65779 4.21026
lowerback 12.8166 2.97199 0.430792
upperback 1.57493 4.0719 1.18848
thorax -5.57499 2.00266 0.29648
lowerneck -19.038 4.6935 -7.46508
upperneck 38.4721 9.42972 2.44678
head 16.6034 3.21251 4.2047
rclavicle 3.77691e-015 -3.18055e-015
rhumerus -36.9125 -21.0181 -67.5429
rradius 32.8278
rwrist 6.74074
rhand -16.6815 9.89091
rfingers 7.12502
rthumb 9.54262 -19.873
lclavicle 3.77691e-015 -3.18055e-015
lhumerus -33.1179 13.7008 76.1885
lradius 32.8501
lwrist -5.44238
lhand -19.8289 26.1981
lfingers 7.12502
lthumb 6.50501 56.0782
rfemur -9.23488 5.11786 4.75952
rtibia 43.4374
rfoot -17.5431 -0.435515
rtoes 8.70952
lfemur -3.91289 -9.59572 -18.8117
ltibia 22.9468
lfoot -14.1347 -8.91139
ltoes -19.3552
